HIERARCHY
ROOT root
{
	OFFSET	0	13.1	24.9
	CHANNELS 6  Xposition Yposition Zposition Xrotation Yrotation Zrotation
	JOINT spine_1
	{
		OFFSET	0	9.99999	0
		CHANNELS 3  Xrotation Yrotation Zrotation
		JOINT spine_2
		{
			OFFSET	0	112	-10
			CHANNELS 3  Xrotation Yrotation Zrotation
			JOINT spine_3
			{
				OFFSET	0	206.5	19.3
				CHANNELS 3  Xrotation Yrotation Zrotation
				JOINT spine_4
				{
					OFFSET	0	110.4	14.6
					CHANNELS 3  Xrotation Yrotation Zrotation
					JOINT neck_1
					{
						OFFSET	0	71.8	-50.3
						CHANNELS 3  Xrotation Yrotation Zrotation
						JOINT neck_2
						{
							OFFSET	0	86.2	-25.8
							CHANNELS 3  Xrotation Yrotation Zrotation
							JOINT head_ee
							{
								OFFSET	0	179.8	-8.7
								CHANNELS 3  Xrotation Yrotation Zrotation
								End Site
								{
									OFFSET	1	0	0
								}
							}
						}
					}
					JOINT left_clavicle
					{
						OFFSET	-43.2	22.4	-70.8
						CHANNELS 3  Xrotation Yrotation Zrotation
						JOINT left_shoulder
						{
							OFFSET	-93.9	-5.79999	48.7
							CHANNELS 3  Xrotation Yrotation Zrotation
							JOINT left_elbow
							{
								OFFSET	-291.4	-30.8	15.2
								CHANNELS 3  Xrotation Yrotation Zrotation
								JOINT left_lowarm_twist
								{
									OFFSET	-110.7	-3.89999	13.6
									CHANNELS 3  Xrotation Yrotation Zrotation
									JOINT left_hand
									{
										OFFSET	-110.7	-3.89999	13.6
										CHANNELS 3  Xrotation Yrotation Zrotation
										JOINT left_ee
										{
											OFFSET	-80.8	-5.10001	12.1
											CHANNELS 3  Xrotation Yrotation Zrotation
											End Site
											{
												OFFSET	1	0	0
											}
										}
									}
								}
							}
						}
					}
					JOINT right_clavicle
					{
						OFFSET	43.2	22.4	-70.8
						CHANNELS 3  Xrotation Yrotation Zrotation
						JOINT right_shoulder
						{
							OFFSET	93.9	-5.79999	48.7
							CHANNELS 3  Xrotation Yrotation Zrotation
							JOINT right_elbow
							{
								OFFSET	291.4	-30.8	15.2
								CHANNELS 3  Xrotation Yrotation Zrotation
								JOINT right_lowarm_twist
								{
									OFFSET	110.7	-3.89999	13.6
									CHANNELS 3  Xrotation Yrotation Zrotation
									JOINT right_hand
									{
										OFFSET	110.7	-3.89999	13.6
										CHANNELS 3  Xrotation Yrotation Zrotation
										JOINT right_ee
										{
											OFFSET	80.8	-5.10001	12.1
											CHANNELS 3  Xrotation Yrotation Zrotation
											End Site
											{
												OFFSET	1	0	0
											}
										}
									}
								}
							}
						}
					}
				}
			}
		}
	}
	JOINT left_hip
	{
		OFFSET	-82.8	-127.5	0.300001
		CHANNELS 3  Xrotation Yrotation Zrotation
		JOINT left_knee
		{
			OFFSET	-28.2	-396.7	2.2
			CHANNELS 3  Xrotation Yrotation Zrotation
			JOINT left_ankle
			{
				OFFSET	-11.7	-411.3	35.4
				CHANNELS 3  Xrotation Yrotation Zrotation
				JOINT left_toes
				{
					OFFSET	0	-60	-88.6
					CHANNELS 3  Xrotation Yrotation Zrotation
					JOINT left_foot_ee
					{
						OFFSET	-22.5	-16.5	-42.2
						CHANNELS 3  Xrotation Yrotation Zrotation
						End Site
						{
							OFFSET	1	0	0
						}
					}
				}
			}
		}
	}
	JOINT right_hip
	{
		OFFSET	82.8	-127.5	0.300001
		CHANNELS 3  Xrotation Yrotation Zrotation
		JOINT right_knee
		{
			OFFSET	28.2	-396.7	2.2
			CHANNELS 3  Xrotation Yrotation Zrotation
			JOINT right_ankle
			{
				OFFSET	11.7	-411.3	35.4
				CHANNELS 3  Xrotation Yrotation Zrotation
				JOINT right_toes
				{
					OFFSET	0	-60	-88.6
					CHANNELS 3  Xrotation Yrotation Zrotation
					JOINT right_foot_ee
					{
						OFFSET	22.5	-16.5	-42.2
						CHANNELS 3  Xrotation Yrotation Zrotation
						End Site
						{
							OFFSET	1	0	0
						}
					}
				}
			}
		}
	}
}
MOTION
Frames: 6
Frame Time: 0.02
1205.98956585 743.486 -1729.01454442 11.7767811765 31.3211472465 -4.62907683799 -5.4143 0.0166982 -1.03423 -5.41371 0.0824716 -1.03107 -5.41429 0.38953 -0.958223 -5.41549 0.233316 -1.00771 7.34449 5.32375 2.5274 7.39877 6.67994 3.12194 -0.0 0.0 -0.0 6.67224 9.10541 12.8252 -7.44056 -24.979 66.4942 0.572223 -15.8262 0.0795365 29.9592 0.0676146 -3.78319 -2.25647 28.8635 -0.895936 -0.0 0.0 -0.0 6.96154 24.3776 -12.3054 -5.95692 42.6671 -46.2766 0.717774 19.5736 -0.123812 8.25975 -0.216954 1.03188 2.67795 -29.9816 -27.0074 0.0 0.0 0.0 22.2991 -3.04949 -5.18857 -75.6266 -4.10125 9.99917 12.0239 19.0631 -1.73033 -40.1383 0.0 0.0 -0.0 0.0 -0.0 9.08902 5.82083 -6.96499 -25.7889 -0.182193 -3.92006 28.6723 -4.02184 3.74737 -36.1361 0.0 0.0 0.0 0.0 0.0 
1180.10756406 744.569 -1739.2280124 10.6107822297 32.3273191016 -4.19310615524 -5.10051 0.134768 -1.20129 -5.09973 0.21093 -1.19028 -5.10316 0.554224 -1.07431 -5.10457 0.377614 -1.14834 7.19797 4.13996 2.0311 7.23025 5.1467 2.50728 -0.0 0.0 -0.0 6.28967 10.0884 12.1135 -7.98696 -24.6387 68.7929 0.506317 -14.0803 0.0625287 30.5713 0.0483444 -3.859 -1.86793 28.7317 1.12515 -0.0 0.0 -0.0 6.45082 20.5096 -11.5391 -5.55939 44.0434 -44.716 0.927269 24.6709 -0.202783 6.50572 -0.18337 0.810346 2.60544 -29.9721 -26.5611 0.0 0.0 0.0 24.8325 -6.97391 -3.6551 -73.7117 -3.84751 9.84704 9.77687 19.0326 -1.41739 -40.1277 0.0 0.0 -0.0 0.0 -0.0 8.25188 8.98783 -6.53138 -26.467 -0.163094 -4.02238 32.3012 -6.41706 4.12921 -34.585 0.0 0.0 0.0 0.0 0.0 
1160.19181774 743.5 -1746.14999156 10.4552058947 35.7702832676 -5.32641350098 -4.90613 -0.251935 -1.07404 -4.9055 -0.183085 -1.0879 -4.90075 0.143629 -1.0938 -4.90242 -0.0309083 -1.10276 6.27955 4.58727 3.53538 6.31887 4.6431 4.27783 -0.0 0.0 -0.0 5.95202 8.38241 11.5428 -9.90437 -24.3181 70.3064 0.411321 -11.5169 0.0414795 31.3046 0.0241945 -3.94954 -0.940614 28.8675 6.17591 -0.0 0.0 -0.0 5.93217 19.2615 -10.5161 -2.73025 45.3364 -43.6422 1.09256 28.4223 -0.276693 6.94369 -0.19239 0.865565 2.57295 -29.0361 -26.1942 0.0 0.0 0.0 25.4914 -5.1865 -4.72065 -70.0132 -3.3725 9.52971 6.54771 18.2732 -0.956283 -40.1586 0.0 0.0 -0.0 0.0 -0.0 6.53452 4.64063 -4.36326 -26.4249 -0.164314 -4.01603 34.0206 -6.84291 4.30322 -33.1415 0.0 0.0 0.0 0.0 0.0 
1128.37612577 742.714 -1744.82371919 10.7570184195 39.0727901471 -6.27745113304 -4.63575 -0.399737 -1.15632 -4.63506 -0.325353 -1.17941 -4.62681 0.0285332 -1.22312 -4.62886 -0.164979 -1.21228 6.81999 4.60489 3.22581 6.8577 4.89509 3.92199 -0.0 0.0 -0.0 6.05811 8.12509 11.738 -11.7007 -24.1632 71.0219 0.349553 -9.82403 0.0300411 32.26 -0.00901009 -4.06704 -0.190795 28.7828 10.2207 -0.0 0.0 -0.0 5.87455 17.9199 -10.4989 -0.904787 46.0781 -41.9314 1.16259 29.9372 -0.310843 6.46831 -0.182579 0.805632 2.48422 -28.719 -25.5883 0.0 0.0 0.0 25.9462 -5.56579 -4.79598 -65.8088 -2.85878 9.13289 3.9446 14.3371 -0.574654 -40.1914 0.0 0.0 -0.0 0.0 -0.0 4.85538 3.7124 -2.95534 -25.9976 -0.176443 -3.95158 33.9486 -7.01928 4.29635 -33.0661 0.0 0.0 0.0 0.0 0.0 
1101.99532414 741.092 -1748.33565783 10.6963564367 40.3459343098 -6.82282849849 -4.48172 -0.35958 -1.09509 -4.48109 -0.289172 -1.11575 -4.47411 0.041759 -1.15185 -4.47593 -0.140667 -1.144 6.36961 4.43078 3.34684 6.40583 4.53645 4.05386 -0.0 0.0 -0.0 5.66623 8.69564 11.0259 -12.6075 -24.0395 72.4076 0.317297 -8.93284 0.0247848 33.3197 -0.0481248 -4.19671 0.307566 29.1084 13.0753 -0.0 0.0 -0.0 6.43831 15.649 -11.88 1.0946 46.0398 -41.2492 1.37702 34.2974 -0.424927 6.01324 -0.172722 0.748336 2.24787 -28.2387 -24.0459 0.0 0.0 0.0 27.0054 -5.67592 -3.12935 -59.3787 -2.13327 8.45664 1.98604 12.9046 -0.290136 -40.1898 0.0 0.0 -0.0 0.0 -0.0 3.51719 2.0155 -1.19807 -25.6776 -0.185211 -3.90325 33.9303 -7.12727 4.29472 -32.1924 0.0 0.0 0.0 0.0 0.0 
1074.97743681 739.756 -1755.79387855 10.0933674933 41.0200274005 -6.80107293719 -4.3551 -0.172424 -1.15592 -4.35437 -0.0985256 -1.16455 -4.35112 0.235983 -1.14464 -4.35294 0.0522597 -1.16754 6.01416 3.81892 4.53313 6.06154 2.47807 5.40103 -0.0 0.0 -0.0 5.88631 10.6755 11.3896 -14.0576 -24.9196 72.9107 0.284736 -8.02877 0.0199825 32.1086 -0.00361562 -4.04845 -0.0672395 28.9382 10.9534 -0.0 0.0 -0.0 7.34408 13.706 -13.9481 4.62192 41.4086 -40.8216 1.53835 37.3068 -0.519336 7.17374 -0.19696 0.894596 1.74794 -23.1609 -19.7286 0.0 0.0 0.0 28.1541 -5.38625 -1.94064 -54.1039 -1.59805 7.84467 2.88801 13.9055 -0.421583 -39.9642 0.0 0.0 -0.0 0.0 -0.0 2.14725 3.1288 -0.32721 -24.9127 -0.205074 -3.78754 37.6654 -4.25626 4.65059 -30.6394 0.0 0.0 0.0 0.0 0.0 
